<?xml version="1.0" encoding="iso-8859-1"?>
<!-- Generator: Adobe Illustrator 18.0.0, SVG Export Plug-In . SVG Version: 6.00 Build 0)  -->
<!DOCTYPE svg PUBLIC "-//W3C//DTD SVG 1.1//EN" "http://www.w3.org/Graphics/SVG/1.1/DTD/svg11.dtd">
<svg version="1.1" id="Capa_1" xmlns="http://www.w3.org/2000/svg" xmlns:xlink="http://www.w3.org/1999/xlink" x="0px" y="0px"
	 viewBox="0 0 297 297" style="enable-background:new 0 0 297 297;" xml:space="preserve">
<g>
	<path d="M105.41,76.799c1.259-0.845,2.725-1.279,4.203-1.279c0.802,0,1.605,0.127,2.384,0.387c2.215,0.736,3.965,2.459,4.737,4.662
		c4.396,12.535,16.277,20.957,29.563,20.957c17.272,0,31.326-14.053,31.326-31.326c0-3.556,2.481-6.628,5.955-7.377
		c3.48-0.75,7.002,1.028,8.467,4.267c5.007,11.071,20.366,14.999,31.997,14.999c5.497,0,10.911-1.452,15.655-4.198
		c2.34-1.354,5.222-1.354,7.561,0c4.743,2.746,10.158,4.198,15.655,4.198c17.273,0,31.326-14.053,31.326-31.326
		c0-17.274-14.053-31.326-31.326-31.326c-7.406,0-13.739,1.207-17.378,3.313c-1.846,1.069-4.059,1.307-6.088,0.655
		c-2.03-0.652-3.69-2.133-4.568-4.076C229.816,8.129,217.084,0,204.606,0c-8.979,0-17.541,3.871-23.496,10.62
		c-1.432,1.624-3.493,2.554-5.658,2.554c-2.166,0-4.227-0.93-5.659-2.554C163.838,3.871,155.274,0,146.297,0
		c-13.285,0-25.166,8.422-29.563,20.957c-0.773,2.203-2.523,3.926-4.737,4.662c-2.214,0.737-4.647,0.408-6.587-0.892
		c-5.158-3.462-11.184-5.29-17.423-5.29c-17.272,0-31.326,14.052-31.326,31.326c0,17.273,14.054,31.326,31.326,31.326
		C94.226,82.089,100.25,80.26,105.41,76.799z"/>
	<path d="M73.91,95.063H49.115c-25.56,0-46.355,22.246-46.355,49.59v49.395c0,27.344,20.795,49.59,46.355,49.59H73.91v3.773
		c0,27.344,22.246,49.59,49.59,49.59h100.258c27.344,0,49.59-22.246,49.59-49.59V95.984c-3.357,0.773-6.846,1.197-10.434,1.197
		c-6.724,0-13.364-1.467-19.436-4.268c-6.073,2.801-12.714,4.268-19.437,4.268c-11.412,0-24.646-2.861-34.488-10.141
		c-6.757,17.293-23.6,29.576-43.257,29.576c-16.73,0-31.958-9.015-40.152-23.123c-5.703,2.428-11.858,3.688-18.157,3.688
		C83.081,97.182,78.352,96.481,73.91,95.063z M73.91,222.076H49.115c-13.673,0-24.795-12.573-24.795-28.029v-49.395
		c0-15.456,11.122-28.029,24.795-28.029H73.91V222.076z M128.171,250.645c0,4.168-3.378,7.546-7.546,7.546s-7.547-3.378-7.547-7.546
		V142.84c0-4.168,3.379-7.546,7.547-7.546s7.546,3.378,7.546,7.546V250.645z M181.175,250.645c0,4.168-3.378,7.546-7.546,7.546
		s-7.547-3.378-7.547-7.546V142.84c0-4.168,3.379-7.546,7.547-7.546s7.546,3.378,7.546,7.546V250.645z M234.179,250.645
		c0,4.168-3.378,7.546-7.546,7.546s-7.547-3.378-7.547-7.546V142.84c0-4.168,3.379-7.546,7.547-7.546s7.546,3.378,7.546,7.546
		V250.645z"/>
</g>
<g>
</g>
<g>
</g>
<g>
</g>
<g>
</g>
<g>
</g>
<g>
</g>
<g>
</g>
<g>
</g>
<g>
</g>
<g>
</g>
<g>
</g>
<g>
</g>
<g>
</g>
<g>
</g>
<g>
</g>
</svg>
